PathFileType	4	(X/Y/Z)	abd.trc
DataRate	CameraRate	NumFrames	NumMarkers	Units	OrigDataRate	OrigDataStartFrame	OrigNumFrames
100.0	100.0	4	17	mm	100.0	446	1189
Frame#	Time	STER			XIPH			T10			T1			CLAV_SC			CLAV_AC			SCAP_AA			SCAP_CP			SCAP_TS			SCAP_IA			DELT			ARMl			EPICm			EPICl			LARM_elb			STYLr			STYLu		
		X1	Y1	Z1	X2	Y2	Z2	X3	Y3	Z3	X4	Y4	Z4	X5	Y5	Z5	X6	Y6	Z6	X7	Y7	Z7	X8	Y8	Z8	X9	Y9	Z9	X10	Y10	Z10	X11	Y11	Z11	X12	Y12	Z12	X13	Y13	Z13	X14	Y14	Z14	X15	Y15	Z15	X16	Y16	Z16	X17	Y17	Z17

446	4.45	407.33197021484375	77.08647918701172	1436.5732421875	398.0050048828125	130.92161560058594	1275.277587890625	385.0262145996094	-105.06150817871094	1240.5146484375	386.896728515625	-82.80722045898438	1472.3287353515625	444.1191711425781	68.63477325439453	1439.03955078125	593.9423217773438	-9.847569465637207	1447.0911865234375	594.7909545898438	-56.80099105834961	1431.8887939453125	539.9686279296875	-61.13499450683594	1465.5694580078125	515.0562133789062	-116.28337097167969	1413.1868896484375	488.1900329589844	-126.38475799560547	1274.134765625	641.8191528320312	-39.852333068847656	1288.989990234375	653.1229248046875	-54.35120391845703	1240.3751220703125	604.2870483398438	-31.600893020629883	1081.7005615234375	692.1392822265625	-62.79058074951172	1124.0938720703125	629.8060913085938	-73.78313446044922	1072.4688720703125	796.7699584960938	82.8074951171875	915.2813720703125	728.7548217773438	55.324073791503906	878.3388671875
447	4.46	407.2940673828125	77.08361053466797	1436.568115234375	397.9415283203125	130.88418579101562	1275.4102783203125	385.07568359375	-105.14604187011719	1240.513427734375	386.8892822265625	-82.84850311279297	1472.345947265625	443.7173767089844	68.32971954345703	1439.177978515625	593.8594970703125	-9.841386795043945	1447.2158203125	594.9285888671875	-56.82560348510742	1431.898193359375	539.9338989257812	-61.127132415771484	1465.61181640625	515.0073852539062	-116.28595733642578	1413.197021484375	488.1690673828125	-126.38204956054688	1274.238525390625	641.9833984375	-39.82606506347656	1289.092529296875	653.156982421875	-54.336669921875	1240.4976806640625	604.6157836914062	-31.56357765197754	1081.84326171875	692.0499877929688	-62.78165817260742	1124.2745361328125	630.0389404296875	-73.55924224853516	1072.59423828125	797.1989135742188	83.0274429321289	915.7106323242188	729.3190307617188	55.54058074951172	878.617431640625
448	4.47	407.2529296875	77.08953094482422	1436.55810546875	397.9357604980469	130.87257385253906	1275.4346923828125	385.115234375	-105.20145416259766	1240.5498046875	386.8736572265625	-82.87596893310547	1472.364013671875	443.8975524902344	68.5523452758789	1439.171142578125	593.8342895507812	-9.827589988708496	1447.32275390625	594.800048828125	-56.7994499206543	1432.0904541015625	539.9505004882812	-61.113311767578125	1465.6793212890625	515.1048583984375	-116.28380584716797	1413.1468505859375	488.34613037109375	-126.40142822265625	1274.2012939453125	642.7802734375	-39.707923889160156	1289.20703125	653.438720703125	-54.30705261230469	1240.7301025390625	604.9459228515625	-31.465723037719727	1081.8935546875	692.3593139648438	-62.71992111206055	1124.5164794921875	630.4225463867188	-73.54741668701172	1072.7044677734375	797.648193359375	83.2430419921875	916.0679931640625	729.914794921875	55.72763442993164	878.9544677734375
449	4.48	406.6735534667969	76.90376281738281	1436.3782958984375	397.87030029296875	130.85116577148438	1275.4576416015625	385.1844787597656	-105.2711181640625	1240.55126953125	386.85797119140625	-82.90258026123047	1472.362548828125	443.39471435546875	68.28522491455078	1439.2138671875	593.79052734375	-9.803089141845703	1447.4407958984375	594.7757568359375	-56.75467300415039	1432.207763671875	539.8522338867188	-61.12683868408203	1465.75927734375	515.0833129882812	-116.28742980957031	1413.31787109375	488.3231201171875	-126.39266967773438	1274.3258056640625	642.9346923828125	-39.68825912475586	1289.3892822265625	653.6189575195312	-54.303714752197266	1240.9407958984375	605.3486328125	-31.40015411376953	1082.083740234375	692.7100219726562	-62.67603302001953	1124.7774658203125	630.8804931640625	-73.55786895751953	1072.873779296875	798.29248046875	83.46546173095703	916.6261596679688	730.78466796875	55.99174118041992	879.4044799804688
